<?xml version="1.0" encoding="UTF-8"?>
<svg id="Calque_1" data-name="Calque 1" xmlns="http://www.w3.org/2000/svg" viewBox="0 0 466.67 608.77">
  <defs>
    <style>
      .cls-1 {
        fill: #fff;
        stroke: #fff;
        stroke-linecap: round;
        stroke-linejoin: round;
        stroke-width: 66.67px;
      }
    </style>
  </defs>
  <g id="Interface_Bookmark" data-name="Interface / Bookmark">
    <path id="Vector" class="cls-1" d="m33.33,140.01v316.17c0,45.37,0,68.05,6.8,81.93,12.61,25.73,40.25,40.52,68.65,36.74,15.32-2.04,34.2-14.62,71.95-39.79l.09-.06c14.96-9.97,22.44-14.96,30.27-17.73,14.37-5.08,30.06-5.08,44.43,0,7.84,2.77,15.35,7.78,30.38,17.79,37.75,25.17,56.65,37.74,71.97,39.78,28.4,3.78,56.04-11,68.65-36.73,6.8-13.88,6.8-36.57,6.8-81.93V139.9c0-37.26,0-55.92-7.26-70.17-6.39-12.54-16.62-22.74-29.16-29.13-14.26-7.27-32.9-7.27-70.24-7.27h-186.67c-37.34,0-56.02,0-70.28,7.27-12.54,6.39-22.74,16.58-29.13,29.13-7.27,14.26-7.27,32.94-7.27,70.28Z"/>
  </g>
</svg>