<?xml version="1.0" encoding="utf-8"?>
<!-- Generator: Adobe Illustrator 27.3.0, SVG Export Plug-In . SVG Version: 6.00 Build 0)  -->
<svg version="1.1" id="Calque_1" xmlns="http://www.w3.org/2000/svg" xmlns:xlink="http://www.w3.org/1999/xlink" x="0px" y="0px"
	 viewBox="0 0 800 800" style="enable-background:new 0 0 800 800;" xml:space="preserve">
<style type="text/css">
	.st0{fill:none;stroke:#FFFFFF;stroke-width:66.6667;stroke-linecap:round;stroke-linejoin:round;stroke-miterlimit:133.3333;}
</style>
<g id="Interface__x2F__Bookmark">
	<path id="Vector" class="st0" d="M200,240v316.2c0,45.4,0,68,6.8,81.9c12.6,25.7,40.2,40.5,68.7,36.7c15.3-2,34.2-14.6,71.9-39.8
		l0.1-0.1c15-10,22.4-15,30.3-17.7c14.4-5.1,30.1-5.1,44.4,0c7.8,2.8,15.4,7.8,30.4,17.8c37.7,25.2,56.6,37.7,72,39.8
		c28.4,3.8,56-11,68.7-36.7c6.8-13.9,6.8-36.6,6.8-81.9V239.9c0-37.3,0-55.9-7.3-70.2c-6.4-12.5-16.6-22.7-29.2-29.1
		c-14.3-7.3-32.9-7.3-70.2-7.3H306.7c-37.3,0-56,0-70.3,7.3c-12.5,6.4-22.7,16.6-29.1,29.1C200,184,200,202.7,200,240z"/>
</g>
</svg>
