<?xml version="1.0" encoding="utf-8"?>
<!-- Generator: Adobe Illustrator 27.3.0, SVG Export Plug-In . SVG Version: 6.00 Build 0)  -->
<svg version="1.1" id="Calque_1" xmlns="http://www.w3.org/2000/svg" xmlns:xlink="http://www.w3.org/1999/xlink" x="0px" y="0px"
	 viewBox="0 0 800 800" style="enable-background:new 0 0 800 800;" xml:space="preserve">
<style type="text/css">
	.st0{fill:none;stroke:#FFFFFF;stroke-width:66.6667;stroke-linecap:round;stroke-linejoin:round;stroke-miterlimit:133.3333;}
</style>
<g id="Communication__x2F__Chat_x5F_Circle">
	<path id="Vector" class="st0" d="M250.3,660.1c44,25.4,95.2,39.9,149.7,39.9c165.7,0,300-134.3,300-300c0-165.7-134.3-300-300-300
		c-165.7,0-300,134.3-300,300c0,54.5,14.5,105.6,39.9,149.7l0.1,0.2c2.4,4.2,3.7,6.4,4.2,8.4c0.5,1.9,0.7,3.6,0.5,5.6
		c-0.1,2.1-0.9,4.3-2.3,8.7l-25.6,76.9l0,0.1c-5.4,16.2-8.1,24.3-6.2,29.7c1.7,4.7,5.4,8.4,10.1,10.1c5.4,1.9,13.5-0.8,29.6-6.1
		l0.2-0.1l76.9-25.6c4.4-1.5,6.6-2.2,8.7-2.3c2-0.1,3.7,0,5.6,0.6c2,0.6,4.2,1.8,8.4,4.2L250.3,660.1z"/>
</g>
</svg>
