<svg width="1008" height="210" viewBox="0 0 1008 210" fill="none" xmlns="http://www.w3.org/2000/svg">
<path d="M161.417 210V-1.43051e-05H193.817V210H161.417ZM0.917362 210V-1.43051e-05H33.3174V210H0.917362ZM15.0174 121.5L15.3174 90.3H175.817V121.5H15.0174ZM256.103 210L349.103 -1.43051e-05H384.803L477.503 210H442.403L381.803 73.2C380.403 70.6 378.803 67.1 377.003 62.7C375.403 58.3 373.603 53.7 371.603 48.9C369.803 43.9 368.003 39.1 366.203 34.5C364.603 29.7 363.203 25.6 362.003 22.2L370.403 21.9C368.803 26.1 367.103 30.5 365.303 35.1C363.703 39.7 362.003 44.4 360.203 49.2C358.403 53.8 356.603 58.3 354.803 62.7C353.003 66.9 351.303 70.8 349.703 74.4L289.703 210H256.103ZM296.903 159.6L309.203 128.4H421.103L430.103 159.6H296.903ZM539.98 210V-1.43051e-05H571.78L659.08 121.2L645.88 120.9L733.48 -1.43051e-05H764.68V210H732.28V122.1C732.28 104.9 732.68 89.1 733.48 74.7C734.28 60.1 735.88 45.4 738.28 30.6L741.88 42.6L661.78 149.7H641.98L563.08 42.9L566.38 30.6C568.78 45 570.38 59.4 571.18 73.8C571.98 88.2 572.38 104.3 572.38 122.1V210H539.98ZM851.699 210V-1.43051e-05H1007.4V31.2H884.099V178.8H1007.4V210H851.699ZM868.199 117.9V86.7H990.899V117.9H868.199Z" fill="white"/>
</svg>
