<?xml version="1.0" encoding="utf-8"?>
<!-- Generator: Adobe Illustrator 27.3.0, SVG Export Plug-In . SVG Version: 6.00 Build 0)  -->
<svg version="1.1" id="Calque_1" xmlns="http://www.w3.org/2000/svg" xmlns:xlink="http://www.w3.org/1999/xlink" x="0px" y="0px"
	 viewBox="0 0 800 800" style="enable-background:new 0 0 800 800;" xml:space="preserve">
<style type="text/css">
	.st0{fill:none;stroke:#FFFFFF;stroke-width:66.6667;stroke-linecap:round;stroke-linejoin:round;stroke-miterlimit:133.3333;}
</style>
<g id="Navigation__x2F__House_x5F_01">
	<path id="Vector" class="st0" d="M666.7,566.7V381.7c0-17.8,0-26.7-2.2-35c-1.9-7.3-5.1-14.3-9.3-20.6c-4.8-7.1-11.5-13-24.9-24.7
		l-160-140c-24.9-21.8-37.3-32.7-51.3-36.8c-12.3-3.6-25.5-3.6-37.8,0c-14,4.1-26.4,15-51.3,36.8l-160.1,140
		c-13.4,11.7-20.1,17.6-24.9,24.7c-4.3,6.3-7.4,13.2-9.4,20.6c-2.2,8.3-2.2,17.2-2.2,35v184.9c0,31.1,0,46.6,5.1,58.8
		c6.8,16.3,19.7,29.3,36.1,36.1c12.3,5.1,27.8,5.1,58.8,5.1c31.1,0,46.6,0,58.9-5.1c16.3-6.8,29.3-19.8,36.1-36.1
		c5.1-12.2,5.1-27.8,5.1-58.8v-33.3c0-36.8,29.8-66.7,66.7-66.7s66.7,29.8,66.7,66.7v33.3c0,31.1,0,46.6,5.1,58.8
		c6.8,16.3,19.7,29.3,36.1,36.1c12.2,5.1,27.8,5.1,58.8,5.1c31.1,0,46.6,0,58.9-5.1c16.3-6.8,29.3-19.8,36.1-36.1
		C666.7,613.3,666.7,597.7,666.7,566.7z"/>
</g>
</svg>
