<?xml version="1.0" encoding="UTF-8"?>
<svg id="Calque_1" data-name="Calque 1" xmlns="http://www.w3.org/2000/svg" viewBox="0 0 600 611.43">
  <defs>
    <style>
      .cls-1 {
        fill: #fff;
        stroke: #fff;
        stroke-linecap: round;
        stroke-linejoin: round;
        stroke-width: 66.67px;
      }
    </style>
  </defs>
  <g id="Navigation_House_01" data-name="Navigation / House_01">
    <path id="Vector" class="cls-1" d="m566.67,478.08v-184.93c0-17.81-.02-26.72-2.18-35.01-1.92-7.34-5.07-14.29-9.33-20.58-4.81-7.09-11.5-12.97-24.91-24.69l-160-140c-24.89-21.78-37.33-32.66-51.33-36.8-12.34-3.65-25.49-3.65-37.83,0-13.99,4.14-26.42,15.01-51.27,36.75L69.76,212.87c-13.4,11.73-20.09,17.61-24.9,24.69-4.26,6.28-7.44,13.23-9.36,20.58-2.17,8.29-2.17,17.2-2.17,35.01v184.93c0,31.06,0,46.59,5.07,58.84,6.77,16.33,19.74,29.33,36.07,36.09,12.25,5.08,27.78,5.08,58.85,5.08s46.61,0,58.86-5.08c16.34-6.77,29.3-19.76,36.07-36.09,5.07-12.25,5.08-27.78,5.08-58.84v-33.33c0-36.82,29.85-66.67,66.67-66.67s66.67,29.85,66.67,66.67v33.33c0,31.06,0,46.59,5.07,58.84,6.77,16.34,19.74,29.33,36.07,36.09,12.25,5.08,27.78,5.08,58.84,5.08s46.61,0,58.86-5.08c16.34-6.77,29.3-19.76,36.07-36.09,5.07-12.25,5.08-27.78,5.08-58.84Z"/>
  </g>
</svg>