<?xml version="1.0" encoding="UTF-8"?>
<svg id="Calque_1" data-name="Calque 1" xmlns="http://www.w3.org/2000/svg" viewBox="0 0 600 466.67">
  <defs>
    <style>
      .cls-1 {
        fill: #fff;
      }
    </style>
  </defs>
  <g id="Communication_Mail" data-name="Communication / Mail">
    <path id="Vector" class="cls-1" d="m33.33,33.33l203.59,153.74.07.06c22.6,16.58,33.91,24.87,46.3,28.07,10.95,2.83,22.46,2.83,33.41,0,12.4-3.21,23.74-11.52,46.39-28.13,0,0,130.58-100.21,203.58-153.74M0,360.01V106.67c0-37.34,0-56.02,7.27-70.28,6.39-12.54,16.58-22.74,29.13-29.13C50.65,0,69.34,0,106.67,0h386.67c37.34,0,55.98,0,70.24,7.27,12.54,6.39,22.77,16.58,29.16,29.13,7.26,14.25,7.26,32.91,7.26,70.17v253.56c0,37.26,0,55.9-7.26,70.14-6.39,12.54-16.62,22.75-29.16,29.14-14.25,7.26-32.88,7.26-70.14,7.26H106.56c-37.26,0-55.92,0-70.17-7.26-12.54-6.39-22.74-16.6-29.13-29.14-7.27-14.26-7.27-32.92-7.27-70.26Z"/>
  </g>
</svg>