<svg width="513" height="373" viewBox="0 0 513 373" fill="none" xmlns="http://www.w3.org/2000/svg">
<path fill-rule="evenodd" clip-rule="evenodd" d="M47.1987 1.70592C25.5117 7.40192 7.24575 25.8279 1.71375 47.5899C-0.57125 56.5809 -0.57125 315.679 1.71375 324.67C7.30275 346.656 25.6727 365.026 47.6587 370.615C52.8857 371.944 78.5238 372.13 256.199 372.13C433.874 372.13 459.512 371.944 464.739 370.615C486.725 365.026 505.095 346.656 510.684 324.67C512.969 315.679 512.969 56.5809 510.684 47.5899C505.095 25.6039 486.725 7.23392 464.739 1.64492C455.958 -0.587076 55.7077 -0.529079 47.1987 1.70592ZM434.552 47.4219C319.246 136.453 257.049 184.13 256.209 184.13C255.388 184.13 185.199 130.342 73.3138 43.9709C70.9948 42.1809 76.0647 42.1299 256.167 42.1299H441.406L434.552 47.4219ZM104.52 122.451C137.893 148.202 165.199 169.643 165.199 170.097C165.199 170.797 52.9947 275.205 44.9727 281.969L42.1987 284.308V179.636C42.1987 122.066 42.5677 75.1129 43.0197 75.2969C43.4717 75.4799 71.1468 96.6989 104.52 122.451ZM470.199 179.734V284.337L466.449 281.047C449.122 265.845 347.212 170.591 347.465 169.833C347.823 168.759 468.243 75.3559 469.449 75.2169C469.862 75.1689 470.199 122.202 470.199 179.734ZM222.535 213.483C234.175 222.476 245.226 230.621 247.093 231.583C251.564 233.885 260.826 233.887 265.305 231.588C267.172 230.629 278.283 222.443 289.996 213.396L311.293 196.946L314.191 199.288C315.784 200.576 347.934 230.205 385.635 265.13C449.717 324.494 454.004 328.671 451.441 329.262C449.933 329.609 362.074 329.893 256.199 329.893C150.324 329.893 62.4827 329.609 60.9977 329.262C58.4857 328.674 63.2987 324.002 129.369 262.88C168.459 226.717 200.651 197.13 200.907 197.13C201.163 197.13 210.895 204.489 222.535 213.483Z" fill="white"/>
</svg>
