<?xml version="1.0" encoding="utf-8"?>
<!-- Generator: Adobe Illustrator 27.3.0, SVG Export Plug-In . SVG Version: 6.00 Build 0)  -->
<svg version="1.1" id="Calque_1" xmlns="http://www.w3.org/2000/svg" xmlns:xlink="http://www.w3.org/1999/xlink" x="0px" y="0px"
	 viewBox="0 0 800 800" style="enable-background:new 0 0 800 800;" xml:space="preserve">
<style type="text/css">
	.st0{fill:none;stroke:#FFFFFF;stroke-width:66.6667;stroke-linecap:round;stroke-linejoin:round;stroke-miterlimit:133.3333;}
</style>
<g id="Communication__x2F__Mail">
	<path id="Vector" class="st0" d="M133.3,200l203.6,153.7l0.1,0.1c22.6,16.6,33.9,24.9,46.3,28.1c10.9,2.8,22.5,2.8,33.4,0
		c12.4-3.2,23.7-11.5,46.4-28.1c0,0,130.6-100.2,203.6-153.7 M100,526.7V273.3c0-37.3,0-56,7.3-70.3c6.4-12.5,16.6-22.7,29.1-29.1
		c14.3-7.3,32.9-7.3,70.3-7.3h386.7c37.3,0,56,0,70.2,7.3c12.5,6.4,22.8,16.6,29.2,29.1c7.3,14.2,7.3,32.9,7.3,70.2v253.6
		c0,37.3,0,55.9-7.3,70.1c-6.4,12.5-16.6,22.8-29.2,29.1c-14.2,7.3-32.9,7.3-70.1,7.3H206.6c-37.3,0-55.9,0-70.2-7.3
		c-12.5-6.4-22.7-16.6-29.1-29.1C100,582.7,100,564,100,526.7z"/>
</g>
</svg>
