<?xml version="1.0" encoding="utf-8"?>
<!-- Generator: Adobe Illustrator 27.3.0, SVG Export Plug-In . SVG Version: 6.00 Build 0)  -->
<svg version="1.1" id="Calque_1" xmlns="http://www.w3.org/2000/svg" xmlns:xlink="http://www.w3.org/1999/xlink" x="0px" y="0px"
	 viewBox="0 0 800 800" style="enable-background:new 0 0 800 800;" xml:space="preserve">
<style type="text/css">
	.st0{fill:none;stroke:#FFFFFF;stroke-width:66.6667;stroke-linecap:round;stroke-linejoin:round;stroke-miterlimit:133.3333;}
</style>
<g id="Communication__x2F__Bell">
	<path id="Vector" class="st0" d="M500,566.7V600c0,55.2-44.8,100-100,100s-100-44.8-100-100v-33.3 M500,566.7H300 M500,566.7h119.7
		c12.8,0,19.2,0,24.3-1.7c9.9-3.3,17.6-11.1,20.9-20.9c1.7-5.2,1.7-11.6,1.7-24.5c0-5.6,0-8.4-0.4-11.1c-0.8-5.1-2.8-9.9-5.8-14
		c-1.6-2.2-3.6-4.2-7.6-8.2l-13-13c-4.2-4.2-6.5-9.9-6.5-15.8V333.3C633.3,204.5,528.9,100,400,100
		c-128.9,0-233.3,104.5-233.3,233.3v124.1c0,5.9-2.4,11.6-6.5,15.8l-13,13c-4,4-6,6-7.6,8.2c-3,4.2-5,9-5.8,14
		c-0.4,2.7-0.4,5.5-0.4,11.1c0,12.8,0,19.3,1.7,24.5c3.3,9.9,11.1,17.6,20.9,20.9c5.2,1.7,11.5,1.7,24.3,1.7H300"/>
</g>
</svg>
