<svg width="413" height="512" viewBox="0 0 413 512" fill="none" xmlns="http://www.w3.org/2000/svg">
<path fill-rule="evenodd" clip-rule="evenodd" d="M187.5 2.773C169.403 8.949 156.682 22.082 151.096 40.355C147.973 50.569 148.168 64.669 151.571 74.807C152.986 79.02 154.625 83.048 155.214 83.758C156.684 85.529 156.396 85.715 145.331 90.168C125.318 98.222 107.586 110.163 91.5 126.42C73.536 144.575 59.936 167.142 52.582 191C48.826 203.185 45.932 217.871 46.103 223.881C46.16 225.871 46.793 223.225 47.511 218C50.109 199.08 55.034 183.682 64.177 165.885C82.139 130.925 114.975 101.948 151.453 88.866L157.822 86.582L155.403 81.808C150.012 71.169 148.381 54.634 151.531 42.542C157.136 21.021 176.993 3.66 199 1.037C205.415 0.273005 205.434 0.261005 200.5 0.153005C197.416 0.0850049 192.434 1.089 187.5 2.773ZM213 1.037C235.007 3.66 254.864 21.021 260.469 42.542C263.619 54.634 261.988 71.169 256.597 81.808L254.178 86.582L260.547 88.866C297.025 101.948 329.861 130.925 347.823 165.885C356.892 183.537 361.749 198.651 364.569 218C365.953 227.489 365.954 227.491 365.455 219.969C364.453 204.84 358.628 185.205 349.891 167.5C332.816 132.902 302.833 104.922 267.325 90.451C261.563 88.103 256.593 85.927 256.282 85.615C255.97 85.303 256.197 84.468 256.786 83.758C257.375 83.048 259.014 79.02 260.429 74.807C265.735 59 263.162 39.299 253.96 25.274C244.418 10.731 225.653 -0.245995 211 0.143005C207.037 0.249005 207.275 0.355005 213 1.037ZM199.5 42.905C198.4 43.393 196.15 45.219 194.5 46.962C191.761 49.855 191.5 50.734 191.5 57.049C191.5 63.715 191.637 64.104 195.267 67.733C198.901 71.368 199.277 71.5 206 71.5C212.723 71.5 213.099 71.368 216.733 67.733C220.368 64.099 220.5 63.723 220.5 57C220.5 50.3 220.358 49.892 216.801 46.334C213.508 43.041 212.464 42.601 207.301 42.327C204.11 42.157 200.6 42.418 199.5 42.905ZM213.701 44.96C222.378 50.25 222.016 64.838 213.094 69.451C203.346 74.493 192.013 67.91 192.004 57.2C191.996 48.665 197.576 43.007 206 43.007C208.703 43.007 211.778 43.787 213.701 44.96ZM191.5 121.022C140.867 127.552 101.387 163.895 89.41 215C87.861 221.608 87.607 229.664 87.269 282.75L86.886 343H205.943H325L324.758 286.25L324.517 229.5L324.25 285.75L323.983 342H205.992H88L88.006 286.75C88.012 225.879 88.478 219.324 93.952 202.985C107.687 161.988 140.332 132.86 183.162 123.386C192.542 121.311 215.801 121.04 226 122.887C256.895 128.48 285.767 147.087 302.981 172.5C312.844 187.059 319.937 204.653 322.449 220.785C323.196 225.578 323.85 228.019 323.903 226.208C323.956 224.397 323.284 219.447 322.41 215.208C312.856 168.895 277.324 133.113 230.751 122.901C220.491 120.652 201.442 119.74 191.5 121.022ZM45 285.271V342.542L38.904 343.701C30.29 345.338 22.817 349.304 15.568 356.085C-8.879 378.955 -3.613 419.963 25.736 435.264C33.327 439.222 41.763 441.399 47 440.752C50.138 440.365 50.028 440.304 45.932 440.16C28.053 439.534 9.804 425.483 3.49 407.484C1.221 401.017 0.457999 388.756 1.904 382.013C4.972 367.707 14.822 355.158 28.142 348.586C32.259 346.554 37.813 344.683 40.75 344.338L46 343.721V285.861C46 254.037 45.775 228 45.5 228C45.225 228 45 253.772 45 285.271ZM366.242 285.611L366 343.721L371.25 344.338C379.024 345.252 390.164 351.164 397.01 358.01C406.871 367.871 411.655 380.714 410.759 394.918C409.958 407.625 405.085 418.022 395.684 427.087C388.172 434.329 378.837 438.644 367.5 440.114C361.708 440.865 361.76 440.877 369 440.484C387.537 439.477 405.386 423.973 410.467 404.465C415.004 387.045 409.595 368.399 396.432 356.085C389.185 349.306 381.71 345.338 373.104 343.702L367.016 342.545L366.75 285.023L366.483 227.5L366.242 285.611ZM46.315 385.002C39.748 387.663 41.362 399.239 48.25 398.884C50.286 398.779 50.31 398.722 48.5 398.281C42.716 396.872 41.119 390.625 45.635 387.073L48.27 385H206H363.73L366.365 387.073C370.881 390.625 369.284 396.872 363.5 398.281C361.69 398.722 361.714 398.779 363.75 398.884C369.136 399.162 371.883 391.548 368.088 386.861L366.177 384.5L207.338 384.309C117.008 384.2 47.558 384.499 46.315 385.002ZM129.07 442.803C128.906 448.19 132.509 460.227 137.2 469.96C141.643 479.179 143.324 481.497 151.37 489.5C158.279 496.371 162.447 499.582 168.5 502.696C179.642 508.429 188.159 511.011 197.5 511.487L205.5 511.895L198.273 511.052C164.255 507.083 138.11 483.001 130.942 449.035C129.951 444.341 129.109 441.536 129.07 442.803ZM171.624 443.75C172.659 448.048 176.704 455.593 179.963 459.305C181.595 461.163 185.758 464.217 189.215 466.092C195.231 469.354 195.95 469.5 206 469.5C216.065 469.5 216.762 469.358 222.834 466.066C231.294 461.479 238.24 452.644 240.377 443.75C241.504 439.063 240.374 440.71 238.004 447.21C234.965 455.545 226.862 463.785 218.705 466.837C205.565 471.754 191.649 468.809 181.888 459.048C177.718 454.878 175.674 451.812 173.996 447.21C171.627 440.712 170.495 439.061 171.624 443.75ZM281.207 448.002C277.263 471.361 261.331 492.653 239.488 503.758C233.476 506.815 221.863 510.103 213.727 511.052L206.5 511.895L214.5 511.487C245.327 509.916 274.389 484.024 281.48 451.815C282.41 447.589 283.015 443.314 282.823 442.317C282.631 441.32 281.904 443.878 281.207 448.002Z" fill="black"/>
</svg>
