<?xml version="1.0" encoding="UTF-8"?>
<svg id="Calque_1" data-name="Calque 1" xmlns="http://www.w3.org/2000/svg" viewBox="0 0 599.99 666.67">
  <defs>
    <style>
      .cls-1 {
        fill: #fff;
        stroke: #fff;
        stroke-linecap: round;
        stroke-linejoin: round;
        stroke-width: 66.67px;
      }
    </style>
  </defs>
  <g id="Communication_Bell" data-name="Communication / Bell">
    <path id="Vector" class="cls-1" d="m400,500v33.33c0,55.23-44.77,100-100,100s-100-44.77-100-100v-33.33m200,0h-200m200,0h119.68c12.75,0,19.16,0,24.32-1.74,9.86-3.33,17.58-11.07,20.91-20.93,1.75-5.18,1.75-11.61,1.75-24.46,0-5.62,0-8.43-.45-11.12-.83-5.07-2.8-9.87-5.79-14.04-1.58-2.2-3.59-4.21-7.56-8.18l-12.98-12.98c-4.19-4.19-6.54-9.87-6.54-15.8v-124.08c0-128.87-104.47-233.33-233.33-233.33-128.87,0-233.33,104.47-233.33,233.33v124.08c0,5.93-2.36,11.61-6.55,15.8l-12.98,12.98c-3.98,3.98-5.97,5.97-7.55,8.18-2.99,4.17-4.98,8.97-5.81,14.04-.44,2.68-.44,5.49-.44,11.12,0,12.85,0,19.27,1.75,24.46,3.33,9.86,11.08,17.61,20.94,20.94,5.16,1.74,11.55,1.74,24.3,1.74h119.68"/>
  </g>
</svg>