<svg width="512" height="512" viewBox="0 0 512 512" fill="none" xmlns="http://www.w3.org/2000/svg">
<path fill-rule="evenodd" clip-rule="evenodd" d="M184.5 1.943C148.165 7.629 115.291 21.33 86.5 42.785C75.878 50.701 57.082 68.621 49.04 78.5C25.308 107.65 9.96496 140.842 2.88296 178.35C0.222962 192.441 -0.810038 225.727 0.935962 241.113C6.48496 290.021 28.963 336.256 64.069 370.971C97.908 404.434 141.482 425.597 190 432.134C203.375 433.936 233.916 433.641 247.5 431.578C270.787 428.042 291.661 421.575 312.5 411.44L323.5 406.09L371.5 453.857C414.488 496.636 420.231 501.999 426.5 505.216C436.74 510.47 442.936 512 453.971 512C470.907 512 484 506.741 495.37 495.37C506.741 484 512 470.907 512 453.971C512 442.944 510.472 436.752 505.223 426.5C502.009 420.222 496.709 414.548 453.822 371.47L406.006 323.44L411.403 312.47C426.582 281.624 433.393 251.854 433.362 216.5C433.331 181.161 426.851 152.976 411.52 121.5C389.912 77.138 355.682 42.902 311.5 21.463C292.248 12.121 274.873 6.506 252.5 2.395C238.283 -0.217 199.934 -0.472 184.5 1.943ZM250.007 45.852C353.321 66.764 414.762 172.304 381.497 271.716C363.785 324.647 322.673 365.164 269.178 382.409C234.239 393.672 196.709 393.351 161.249 381.485C94.735 359.228 47.112 297.52 43.183 228.5C41.756 203.431 44.525 182.3 52.125 160.259C67.204 116.529 98.085 81.465 140 60.482C151.865 54.542 172.517 47.725 185 45.627C190.225 44.749 195.625 43.835 197 43.596C198.375 43.357 208.5 43.288 219.5 43.443C235.077 43.662 241.824 44.195 250.007 45.852ZM384.753 384.736L374.019 395.469L366.676 388.175L359.332 380.88L369.916 370.13L380.5 359.379L387.993 366.691L395.486 374.002L384.753 384.736ZM446.653 425.25C457.727 436.387 467.323 446.553 467.977 447.84C469.834 451.492 469.428 458.572 467.152 462.247C464.336 466.795 460.122 469 454.246 469C447.684 469 445.778 467.512 423.014 444.608L404.528 426.008L414.996 415.504C420.754 409.727 425.701 405 425.991 405C426.281 405 435.579 414.113 446.653 425.25Z" fill="black"/>
</svg>
