<?xml version="1.0" encoding="utf-8"?>
<!-- Generator: Adobe Illustrator 27.3.0, SVG Export Plug-In . SVG Version: 6.00 Build 0)  -->
<svg version="1.1" id="Calque_1" xmlns="http://www.w3.org/2000/svg" xmlns:xlink="http://www.w3.org/1999/xlink" x="0px" y="0px"
	 viewBox="0 0 800 800" style="enable-background:new 0 0 800 800;" xml:space="preserve">
<style type="text/css">
	.st0{fill:none;stroke:#FFFFFF;stroke-width:66.6667;stroke-linecap:round;stroke-linejoin:round;stroke-miterlimit:133.3333;}
</style>
<g id="Interface__x2F__Settings">
	<g id="Vector">
		<path class="st0" d="M678.3,297.4l-12.2-6.8c-1.9-1.1-2.8-1.6-3.7-2.1c-9.1-5.5-16.8-13-22.4-22c-0.6-0.9-1.1-1.9-2.2-3.7
			c-1.1-1.9-1.6-2.8-2.1-3.8c-5-9.4-7.7-19.8-7.9-30.5c0-1.1,0-2.2,0-4.3L628,210c0.4-22.7,0.6-34.1-2.6-44.3
			c-2.8-9.1-7.6-17.4-13.9-24.5c-7.1-8-17-13.7-36.9-25.1l-16.5-9.5c-19.8-11.4-29.6-17.1-40.1-19.3c-9.3-1.9-18.9-1.8-28.1,0.2
			c-10.4,2.3-20.2,8.2-39.7,19.9l-0.1,0.1l-11.8,7.1c-1.9,1.1-2.8,1.7-3.7,2.2c-9.3,5.2-19.6,8-30.2,8.3c-1.1,0-2.2,0-4.3,0
			c-2.2,0-3.3,0-4.4,0c-10.6-0.3-21-3.2-30.3-8.4c-0.9-0.5-1.9-1.1-3.7-2.2l-11.9-7.1c-19.6-11.8-29.5-17.7-40-20.1
			c-9.3-2.1-18.9-2.1-28.2-0.2c-10.5,2.2-20.4,7.9-40.2,19.4l-0.1,0l-16.3,9.4l-0.2,0.1c-19.6,11.4-29.4,17.1-36.5,25.1
			c-6.3,7.1-11,15.4-13.8,24.5c-3.2,10.2-3,21.6-2.6,44.4l0.2,14.2c0,2.1,0.1,3.2,0.1,4.3c-0.2,10.7-2.9,21.1-7.9,30.5
			c-0.5,0.9-1,1.9-2.1,3.7c-1.1,1.9-1.6,2.8-2.1,3.7c-5.6,9.1-13.3,16.6-22.5,22.1c-0.9,0.5-1.9,1.1-3.7,2.1l-12.1,6.7
			c-20.1,11.1-30.1,16.7-37.4,24.6c-6.5,7-11.3,15.3-14.3,24.4c-3.4,10.2-3.4,21.7-3.3,44.6l0,18.7c0.1,22.8,0.1,34.1,3.5,44.3
			c3,9,7.8,17.2,14.2,24.2c7.3,7.9,17.2,13.4,37.1,24.5l11.9,6.6c2,1.1,3.1,1.7,4,2.3c9.1,5.5,16.7,13,22.3,22c0.6,1,1.2,2,2.3,4
			c1.1,2,1.7,3,2.3,4c4.9,9.3,7.5,19.5,7.7,30c0,1.1,0,2.3,0,4.6l-0.2,13.6c-0.4,22.9-0.6,34.3,2.6,44.6c2.8,9.1,7.6,17.4,13.9,24.5
			c7.2,8,17.1,13.7,36.9,25.1l16.5,9.5c19.8,11.4,29.6,17.1,40.1,19.2c9.3,1.9,18.9,1.8,28.1-0.2c10.5-2.3,20.2-8.2,39.8-19.9
			l11.8-7.1c1.9-1.1,2.8-1.7,3.7-2.2c9.3-5.2,19.6-8,30.2-8.4c1.1,0,2.2,0,4.3,0c2.2,0,3.3,0,4.3,0c10.6,0.3,21,3.2,30.3,8.4
			c0.8,0.5,1.6,1,3.1,1.8l12.5,7.5c19.6,11.8,29.5,17.7,40,20c9.3,2.1,18.9,2.2,28.2,0.2c10.5-2.2,20.4-7.9,40.2-19.4l16.5-9.6
			c19.6-11.4,29.4-17.1,36.5-25.1c6.3-7.1,11-15.4,13.8-24.5c3.2-10.1,3-21.5,2.6-43.9l-0.2-14.7c0-2.1,0-3.2,0-4.3
			c0.2-10.7,2.9-21.1,7.9-30.5c0.5-0.9,1-1.9,2.1-3.7c1.1-1.9,1.6-2.8,2.2-3.7c5.6-9.1,13.3-16.6,22.5-22.1c0.9-0.5,1.8-1,3.6-2.1
			l0.1,0l12-6.7c20.1-11.1,30.1-16.7,37.4-24.6c6.5-7,11.3-15.3,14.3-24.3c3.3-10.2,3.3-21.6,3.3-44.2l0-19.1
			c-0.1-22.8-0.1-34.1-3.4-44.3c-3-9-7.9-17.2-14.3-24.2C708.2,314,698.2,308.5,678.3,297.4L678.3,297.4z"/>
		<path class="st0" d="M266.7,400c0,73.6,59.7,133.3,133.3,133.3c73.6,0,133.3-59.7,133.3-133.3c0-73.6-59.7-133.3-133.3-133.3
			C326.4,266.7,266.7,326.4,266.7,400z"/>
	</g>
</g>
</svg>
